<?xml version="1.0" encoding="UTF-8" standalone="no"?>
<svg
   xmlns:dc="http://purl.org/dc/elements/1.1/"
   xmlns:cc="http://creativecommons.org/ns#"
   xmlns:rdf="http://www.w3.org/1999/02/22-rdf-syntax-ns#"
   xmlns:svg="http://www.w3.org/2000/svg"
   xmlns="http://www.w3.org/2000/svg"
   xmlns:sodipodi="http://sodipodi.sourceforge.net/DTD/sodipodi-0.dtd"
   xmlns:inkscape="http://www.inkscape.org/namespaces/inkscape"
   inkscape:version="1.0 (6e3e5246a0, 2020-05-07)"
   height="42"
   width="177.778"
   sodipodi:docname="logo.svg"
   id="svg4"
   version="1.1"
   viewBox="0 0 177.778 42">
  <metadata
     id="metadata10">
    <rdf:RDF>
      <cc:Work
         rdf:about="">
        <dc:format>image/svg+xml</dc:format>
        <dc:type
           rdf:resource="http://purl.org/dc/dcmitype/StillImage" />
        <dc:title></dc:title>
      </cc:Work>
    </rdf:RDF>
  </metadata>
  <defs
     id="defs8" />
  <sodipodi:namedview
     inkscape:current-layer="svg4"
     inkscape:window-maximized="1"
     inkscape:window-y="547"
     inkscape:window-x="2560"
     inkscape:cy="50"
     inkscape:cx="88.889"
     inkscape:zoom="5.1969938"
     showgrid="false"
     id="namedview6"
     inkscape:window-height="1016"
     inkscape:window-width="1853"
     inkscape:pageshadow="2"
     inkscape:pageopacity="0"
     guidetolerance="10"
     gridtolerance="10"
     objecttolerance="10"
     borderopacity="1"
     bordercolor="#666666"
     pagecolor="#ffffff" />
  <path
     style="stroke-width:1.52279"
     id="path2"
     fill="#394149"
     d="M 1.8326787,40.962494 H 41.06441 V 2.0746147 H 1.8326787 Z M 33.513259,17.776828 H 25.223356 V 9.5595837 h 8.289903 z M 9.382301,9.5595837 h 8.294491 V 25.260281 h 15.836467 v 8.217244 H 9.382301 Z M 66.611686,2.0746147 A 19.615867,19.44394 0 1 0 86.227553,21.518554 19.638808,19.466682 0 0 0 66.611686,2.0746147 Z m 0,31.4029103 A 12.064713,11.958971 0 1 1 78.6764,21.518554 12.083067,11.977164 0 0 1 66.611686,33.477525 Z M 156.42252,2.0746147 A 19.615867,19.44394 0 1 0 176.03687,21.518554 19.638808,19.466682 0 0 0 156.42252,2.0746147 Z m 0,31.4029103 A 12.064713,11.958971 0 1 1 168.48571,21.518554 12.083067,11.977164 0 0 1 156.42252,33.477525 Z M 111.51635,2.0746147 A 19.615867,19.44394 0 1 0 131.1322,21.518554 19.638808,19.466682 0 0 0 111.51635,2.0746147 Z m 0,31.4029103 a 12.064713,11.958971 0 1 1 11.4529,-15.700697 h -11.4529 v 7.483453 h 11.4529 a 12.083067,11.977164 0 0 1 -11.4529,8.217244 z" />
</svg>
